<?xml version="1.0" standalone="no"?>
<!DOCTYPE svg PUBLIC "-//W3C//DTD SVG 20010904//EN" "http://www.w3.org/TR/2001/REC-SVG-20010904/DTD/svg10.dtd">
<svg version="1.0" xmlns="http://www.w3.org/2000/svg" width="225.000000pt" height="225.000000pt"
    viewBox="0 0 225.000000 225.000000" preserveAspectRatio="xMidYMid meet">

    <g transform="translate(0.000000,225.000000) scale(0.100000,-0.100000)" fill="#000000" stroke="none">
        <path d="M1624 1864 c-18 -14 -18 -14 6 -3 31 14 36 19 24 19 -6 0 -19 -7 -30
-16z" />
        <path d="M1835 1820 c10 -11 20 -20 23 -20 3 0 -3 9 -13 20 -10 11 -20 20 -23
20 -3 0 3 -9 13 -20z" />
        <path d="M1291 985 c47 -56 401 -435 405 -435 6 0 -350 387 -400 435 l-31 30
26 -30z" />
        <path d="M1170 855 c19 -19 36 -35 39 -35 3 0 -10 16 -29 35 -19 19 -36 35
-39 35 -3 0 10 -16 29 -35z" />
        <path d="M1280 738 c24 -27 45 -48 47 -48 8 0 0 9 -44 50 l-48 45 45 -47z" />
        <path d="M1410 598 c41 -45 50 -53 50 -45 0 2 -21 23 -47 47 l-48 45 45 -47z" />
        <path d="M1545 450 c27 -27 51 -50 54 -50 3 0 -17 23 -44 50 -27 28 -51 50
-54 50 -3 0 17 -22 44 -50z" />
        <path d="M350 406 c0 -2 8 -10 18 -17 15 -13 16 -12 3 4 -13 16 -21 21 -21 13z" />
        <path d="M1617 389 c7 -7 15 -10 18 -7 3 3 -2 9 -12 12 -14 6 -15 5 -6 -5z" />
    </g>
</svg>